<svg width="1125px" height="796px" viewBox="0 0 1125 796" xmlns="http://www.w3.org/2000/svg" xmlns:xlink="http://www.w3.org/1999/xlink"><g transform="matrix(1, 0, 0, 1, 0, 0)" clip-path="url(#mainClip7167)"><rect x="0" y="0" width="1125" height="796" fill="#f1f1f1" stroke="none" transform="matrix(1, 0, 0, 1, 0, 0)"/><g transform="matrix(1, 0, 0, 1, 562.5, 398)"><g transform="matrix(0, 1, -1, 0, 561.5, -397)"><g transform="matrix(1, 0, 0, 1, 0, 0)"><path d="M 0,0 L 794,0 L 794,1123 L 0,1123 z" fill="#fff" stroke="none" transform="matrix(1, 0, 0, 1, 0, 0)"/><g transform="matrix(1, 0, 0, 1, 0, 0)"/></g><g transform="matrix(1, 0, 0, 1, 0, 0)"/><g transform="matrix(1, 0, 0, 1, 1, 553.87900390625)"><g transform="matrix(1, 0, 0, 1, 0, 0)"/></g></g><g transform="matrix(1, 0, 0, 1, -291, 169)"><g transform="matrix(1, 0, 0, 1, 0, 0)"><path d="M 0,10 L 0,0 L 197,0 L 197,10" fill="none" stroke="#464646" stroke-width="1.5" stroke-linecap="butt" stroke-linejoin="miter" stroke-miterlimit="10" transform="matrix(1, 0, 0, 1, 0.75, 0.75)"/><path d="M 0,50 L 0,60 L 197,60 L 197,50" fill="none" stroke="#464646" stroke-width="1.5" stroke-linecap="butt" stroke-linejoin="miter" stroke-miterlimit="10" transform="matrix(1, 0, 0, 1, 0.75, 0.75)"/><g transform="matrix(1, 0, 0, 1, 0, 0)"/></g><g transform="matrix(1, 0, 0, 1, 0.75, 0.75)"/><g transform="matrix(1, 0, 0, 1, 1.75, 23.12900390625)"><text x="94.5" y="11.431494140625" style="font:  normal 12px microsoft yahei" text-anchor="middle" fill="black" stroke="none" transform="matrix(1, 0, 0, 1, 3, 0)">mssv08:CPT/MSGboard</text></g><g transform="matrix(1, 0, 0, 1, 0.75, 0.75)"><g transform="matrix(1, 0, 0, 1, 0, 0)" clip-path="url(#CLIP7168)"/></g></g><g transform="matrix(1, 0, 0, 1, -62, 169)"><g transform="matrix(1, 0, 0, 1, 0, 0)"><path d="M 0,10 L 0,0 L 120,0 L 120,10" fill="none" stroke="#e19a00" stroke-width="1.5" stroke-linecap="butt" stroke-linejoin="miter" stroke-miterlimit="10" transform="matrix(1, 0, 0, 1, 0.75, 0.75)"/><path d="M 0,50 L 0,60 L 120,60 L 120,50" fill="none" stroke="#e19a00" stroke-width="1.5" stroke-linecap="butt" stroke-linejoin="miter" stroke-miterlimit="10" transform="matrix(1, 0, 0, 1, 0.75, 0.75)"/><g transform="matrix(1, 0, 0, 1, 0, 0)"/></g><g transform="matrix(1, 0, 0, 1, 0.75, 0.75)"/><g transform="matrix(1, 0, 0, 1, 1.75, 7.887011718749999)"><g transform="matrix(1, 0, 0, 1, 0, 0)"><text x="56" y="11.431494140625" style="font:  normal 12px microsoft yahei" text-anchor="middle" fill="#e19a00" stroke="none" transform="matrix(1, 0, 0, 1, 3, 0)">mssv08:CPTMAIN/</text><text x="56" y="26.673486328125" style="font:  normal 12px microsoft yahei" text-anchor="middle" fill="#e19a00" stroke="none" transform="matrix(1, 0, 0, 1, 3, 0)">auto_sms,</text><text x="56" y="41.915478515625004" style="font:  normal 12px microsoft yahei" text-anchor="middle" fill="#e19a00" stroke="none" transform="matrix(1, 0, 0, 1, 3, 0)">auto_alert</text></g></g><g transform="matrix(1, 0, 0, 1, 0.75, 0.75)"><g transform="matrix(1, 0, 0, 1, 0, 0)" clip-path="url(#CLIP7169)"/></g></g><g transform="matrix(1, 0, 0, 1, -102, -182)"><g transform="matrix(1, 0, 0, 1, 0, 0)"><path d="M 39,0 C 60.539105243400954,0 78,17.46089475659905 78,39 C 78,60.539105243400954 60.539105243400954,78 39,78 C 17.46089475659905,78 0,60.539105243400954 0,39 C 0,17.46089475659905 17.46089475659905,0 39,0 z" fill="#fff" stroke="none" transform="matrix(1, 0, 0, 1, 0.75, 0.75)"/><path d="M 39,0 C 60.539105243400954,0 78,17.46089475659905 78,39 C 78,60.539105243400954 60.539105243400954,78 39,78 C 17.46089475659905,78 0,60.539105243400954 0,39 C 0,17.46089475659905 17.46089475659905,0 39,0 z" fill="none" stroke="rgba(44, 169, 224, 1)" stroke-opacity="1" stroke-width="1.5" stroke-linecap="butt" stroke-linejoin="miter" stroke-miterlimit="10" transform="matrix(1, 0, 0, 1, 0.75, 0.75)"/><g transform="matrix(1, 0, 0, 1, 0, 0)"/></g><g transform="matrix(1, 0, 0, 1, 0.75, 0.75)"/><g transform="matrix(1, 0, 0, 1, 1.75, 32.12900390625)"><text x="35" y="11.431494140625" style="font:  normal 12px microsoft yahei" text-anchor="middle" fill="rgba(44, 169, 224, 1)" fill-opacity="1" stroke="none" transform="matrix(1, 0, 0, 1, 3, 0)">預處理系統</text></g><g transform="matrix(1, 0, 0, 1, 0.75, 0.75)"><g transform="matrix(1, 0, 0, 1, 0, 0)" clip-path="url(#CLIP7170)"/><g transform="matrix(1, 0, 0, 1, 0, 36.5)"><g transform="matrix(1, 0, 0, 1, 0, 0)"/></g><g transform="matrix(1, 0, 0, 1, 0, 0)" clip-path="url(#CLIP7171)"><g transform="matrix(1, 0, 0, 1, 73, 36.5)"><g transform="matrix(1, 0, 0, 1, 0, 0)"/></g></g><g transform="matrix(1, 0, 0, 1, 36.5, 0)"><g transform="matrix(1, 0, 0, 1, 0, 0)"/></g><g transform="matrix(1, 0, 0, 1, 0, 0)" clip-path="url(#CLIP7172)"><g transform="matrix(1, 0, 0, 1, 36.5, 73)"><g transform="matrix(1, 0, 0, 1, 0, 0)"/></g></g></g></g><g transform="matrix(1, 0, 0, 1, 89, 158)"><g transform="matrix(1, 0, 0, 1, 0, 0)"><path d="M 41.5,0 C 64.41981711797793,0 83,18.58018288202207 83,41.5 C 83,64.41981711797793 64.41981711797793,83 41.5,83 C 18.58018288202207,83 0,64.41981711797793 0,41.5 C 0,18.58018288202207 18.58018288202207,0 41.5,0 z" fill="#fff" stroke="none" transform="matrix(1, 0, 0, 1, 0.75, 0.75)"/><path d="M 41.5,0 C 64.41981711797793,0 83,18.58018288202207 83,41.5 C 83,64.41981711797793 64.41981711797793,83 41.5,83 C 18.58018288202207,83 0,64.41981711797793 0,41.5 C 0,18.58018288202207 18.58018288202207,0 41.5,0 z" fill="none" stroke="#464646" stroke-width="1.5" stroke-linecap="butt" stroke-linejoin="miter" stroke-miterlimit="10" transform="matrix(1, 0, 0, 1, 0.75, 0.75)"/><g transform="matrix(1, 0, 0, 1, 0, 0)"/></g><g transform="matrix(1, 0, 0, 1, 0.75, 0.75)"/><g transform="matrix(1, 0, 0, 1, 1.75, 34.62900390625)"><text x="37.5" y="11.431494140625" style="font:  normal 12px microsoft yahei" text-anchor="middle" fill="black" stroke="none" transform="matrix(1, 0, 0, 1, 3, 0)">SMS  Server</text></g><g transform="matrix(1, 0, 0, 1, 0.75, 0.75)"><g transform="matrix(1, 0, 0, 1, 0, 0)" clip-path="url(#CLIP7173)"/><g transform="matrix(1, 0, 0, 1, 0, 39)"><g transform="matrix(1, 0, 0, 1, 0, 0)"/></g><g transform="matrix(1, 0, 0, 1, 0, 0)" clip-path="url(#CLIP7174)"><g transform="matrix(1, 0, 0, 1, 78, 39)"><g transform="matrix(1, 0, 0, 1, 0, 0)"/></g></g><g transform="matrix(1, 0, 0, 1, 39, 0)"><g transform="matrix(1, 0, 0, 1, 0, 0)"/></g><g transform="matrix(1, 0, 0, 1, 0, 0)" clip-path="url(#CLIP7175)"><g transform="matrix(1, 0, 0, 1, 39, 78)"><g transform="matrix(1, 0, 0, 1, 0, 0)"/></g></g></g></g><g transform="matrix(1, 0, 0, 1, 37, 86)"><g transform="matrix(1, 0, 0, 1, 0, 0)"><g transform="matrix(1, 0, 0, 1, 0, 0)"><g transform="matrix(1, 0, 0, 1, 0, 0)"/></g></g></g><g transform="matrix(1, 0, 0, 1, 204, 158)"><g transform="matrix(1, 0, 0, 1, 0, 0)"><path d="M 41.5,0 C 64.41981711797793,0 83,18.58018288202207 83,41.5 C 83,64.41981711797793 64.41981711797793,83 41.5,83 C 18.58018288202207,83 0,64.41981711797793 0,41.5 C 0,18.58018288202207 18.58018288202207,0 41.5,0 z" fill="#fff" stroke="none" transform="matrix(1, 0, 0, 1, 0.75, 0.75)"/><path d="M 41.5,0 C 64.41981711797793,0 83,18.58018288202207 83,41.5 C 83,64.41981711797793 64.41981711797793,83 41.5,83 C 18.58018288202207,83 0,64.41981711797793 0,41.5 C 0,18.58018288202207 18.58018288202207,0 41.5,0 z" fill="none" stroke="#464646" stroke-width="1.5" stroke-linecap="butt" stroke-linejoin="miter" stroke-miterlimit="10" transform="matrix(1, 0, 0, 1, 0.75, 0.75)"/><g transform="matrix(1, 0, 0, 1, 0, 0)"/></g><g transform="matrix(1, 0, 0, 1, 0.75, 0.75)"/><g transform="matrix(1, 0, 0, 1, 1.75, 34.62900390625)"><text x="37.5" y="11.431494140625" style="font:  normal 12px microsoft yahei" text-anchor="middle" fill="black" stroke="none" transform="matrix(1, 0, 0, 1, 3, 0)">alert Server</text></g><g transform="matrix(1, 0, 0, 1, 0.75, 0.75)"><g transform="matrix(1, 0, 0, 1, 0, 0)" clip-path="url(#CLIP7176)"/><g transform="matrix(1, 0, 0, 1, 0, 39)"><g transform="matrix(1, 0, 0, 1, 0, 0)"/></g><g transform="matrix(1, 0, 0, 1, 0, 0)" clip-path="url(#CLIP7177)"><g transform="matrix(1, 0, 0, 1, 78, 39)"><g transform="matrix(1, 0, 0, 1, 0, 0)"/></g></g><g transform="matrix(1, 0, 0, 1, 39, 0)"><g transform="matrix(1, 0, 0, 1, 0, 0)"/></g><g transform="matrix(1, 0, 0, 1, 0, 0)" clip-path="url(#CLIP7178)"><g transform="matrix(1, 0, 0, 1, 39, 78)"><g transform="matrix(1, 0, 0, 1, 0, 0)"/></g></g></g></g><g transform="matrix(1, 0, 0, 1, 91, 14)"><g transform="matrix(1, 0, 0, 1, 0, 0)"><path d="M 39,0 C 60.539105243400954,0 78,17.46089475659905 78,39 C 78,60.539105243400954 60.539105243400954,78 39,78 C 17.46089475659905,78 0,60.539105243400954 0,39 C 0,17.46089475659905 17.46089475659905,0 39,0 z" fill="#fff" stroke="none" transform="matrix(1, 0, 0, 1, 0.75, 0.75)"/><path d="M 39,0 C 60.539105243400954,0 78,17.46089475659905 78,39 C 78,60.539105243400954 60.539105243400954,78 39,78 C 17.46089475659905,78 0,60.539105243400954 0,39 C 0,17.46089475659905 17.46089475659905,0 39,0 z" fill="none" stroke="rgba(116, 83, 152, 1)" stroke-opacity="1" stroke-width="1.5" stroke-linecap="butt" stroke-linejoin="miter" stroke-miterlimit="10" transform="matrix(1, 0, 0, 1, 0.75, 0.75)"/><g transform="matrix(1, 0, 0, 1, 0, 0)"/></g><g transform="matrix(1, 0, 0, 1, 0.75, 0.75)"/><g transform="matrix(1, 0, 0, 1, 1.75, 9.266015624999998)"><g transform="matrix(1, 0, 0, 1, 0, 0)"><text x="35" y="11.431494140625" style="font:  normal 12px microsoft yahei" text-anchor="middle" fill="rgba(116, 83, 152, 1)" fill-opacity="1" stroke="none" transform="matrix(1, 0, 0, 1, 3, 0)">GEN</text><text x="35" y="26.673486328125" style="font:  normal 12px microsoft yahei" text-anchor="middle" fill="rgba(116, 83, 152, 1)" fill-opacity="1" stroke="none" transform="matrix(1, 0, 0, 1, 3, 0)">SMS/alert</text><text x="35" y="41.915478515625004" style="font:  normal 12px microsoft yahei" text-anchor="middle" fill="rgba(116, 83, 152, 1)" fill-opacity="1" stroke="none" transform="matrix(1, 0, 0, 1, 3, 0)">sever所需</text><text x="35" y="57.15747070312501" style="font:  normal 12px microsoft yahei" text-anchor="middle" fill="rgba(116, 83, 152, 1)" fill-opacity="1" stroke="none" transform="matrix(1, 0, 0, 1, 3, 0)">xml</text></g></g><g transform="matrix(1, 0, 0, 1, 0.75, 0.75)"><g transform="matrix(1, 0, 0, 1, 0, 0)" clip-path="url(#CLIP7179)"/><g transform="matrix(1, 0, 0, 1, 0, 36.5)"><g transform="matrix(1, 0, 0, 1, 0, 0)"/></g><g transform="matrix(1, 0, 0, 1, 0, 0)" clip-path="url(#CLIP7180)"><g transform="matrix(1, 0, 0, 1, 73, 36.5)"><g transform="matrix(1, 0, 0, 1, 0, 0)"/></g></g><g transform="matrix(1, 0, 0, 1, 36.5, 0)"><g transform="matrix(1, 0, 0, 1, 0, 0)"/></g><g transform="matrix(1, 0, 0, 1, 0, 0)" clip-path="url(#CLIP7181)"><g transform="matrix(1, 0, 0, 1, 36.5, 73)"><g transform="matrix(1, 0, 0, 1, 0, 0)"/></g></g></g></g><g transform="matrix(1, 0, 0, 1, -63, -295)"><g transform="matrix(1, 0, 0, 1, 0, 0)"><path d="M 0,10 L 0,0 L 197,0 L 197,10" fill="none" stroke="rgba(0, 0, 0, 1)" stroke-opacity="1" stroke-width="1.5" stroke-linecap="butt" stroke-linejoin="miter" stroke-miterlimit="10" transform="matrix(1, 0, 0, 1, 0.75, 0.75)"/><path d="M 0,50 L 0,60 L 197,60 L 197,50" fill="none" stroke="rgba(0, 0, 0, 1)" stroke-opacity="1" stroke-width="1.5" stroke-linecap="butt" stroke-linejoin="miter" stroke-miterlimit="10" transform="matrix(1, 0, 0, 1, 0.75, 0.75)"/><g transform="matrix(1, 0, 0, 1, 0, 0)"/></g><g transform="matrix(1, 0, 0, 1, 0.75, 0.75)"/><g transform="matrix(1, 0, 0, 1, 1.75, 23.12900390625)"><text x="94.5" y="11.431494140625" style="font:  normal 12px microsoft yahei" text-anchor="middle" fill="rgba(0, 0, 0, 1)" fill-opacity="1" stroke="none" transform="matrix(1, 0, 0, 1, 3, 0)">mssv08:CPT/MSGboard</text></g><g transform="matrix(1, 0, 0, 1, 0.75, 0.75)"><g transform="matrix(1, 0, 0, 1, 0, 0)" clip-path="url(#CLIP7182)"/></g></g><g transform="matrix(1, 0, 0, 1, -228, -295)"><g transform="matrix(1, 0, 0, 1, 0, 0)"><path d="M 0,0 L 145,0 L 145,62 L 0,62 z" fill="#fff" stroke="none" transform="matrix(1, 0, 0, 1, 0.75, 0.75)"/><path d="M 0,0 L 145,0 L 145,62 L 0,62 z" fill="none" stroke="#464646" stroke-width="1.5" stroke-linecap="butt" stroke-linejoin="miter" stroke-miterlimit="10" transform="matrix(1, 0, 0, 1, 0.75, 0.75)"/><g transform="matrix(1, 0, 0, 1, 0, 0)"/></g><g transform="matrix(1, 0, 0, 1, 0.75, 0.75)"/><g transform="matrix(1, 0, 0, 1, 1.75, 16.508007812499997)"><g transform="matrix(1, 0, 0, 1, 0, 0)"><text x="68.5" y="11.431494140625" style="font:  normal 12px microsoft yahei" text-anchor="middle" fill="black" stroke="none" transform="matrix(1, 0, 0, 1, 3, 0)">pwsv03:</text><text x="68.5" y="26.673486328125" style="font:  normal 12px microsoft yahei" text-anchor="middle" fill="black" stroke="none" transform="matrix(1, 0, 0, 1, 3, 0)">config/data_error_cf.csv</text></g></g><g transform="matrix(1, 0, 0, 1, 0.75, 0.75)"><g transform="matrix(1, 0, 0, 1, 0, 0)" clip-path="url(#CLIP7183)"/><g transform="matrix(1, 0, 0, 1, 0, 28.5)"><g transform="matrix(1, 0, 0, 1, 0, 0)"/></g><g transform="matrix(1, 0, 0, 1, 0, 0)" clip-path="url(#CLIP7184)"><g transform="matrix(1, 0, 0, 1, 140, 28.5)"><g transform="matrix(1, 0, 0, 1, 0, 0)"/></g></g><g transform="matrix(1, 0, 0, 1, 70, 0)"><g transform="matrix(1, 0, 0, 1, 0, 0)"/></g><g transform="matrix(1, 0, 0, 1, 0, 0)" clip-path="url(#CLIP7185)"><g transform="matrix(1, 0, 0, 1, 70, 57)"><g transform="matrix(1, 0, 0, 1, 0, 0)"/></g></g></g></g><g transform="matrix(1, 0, 0, 1, -102, -377)"><g transform="matrix(1, 0, 0, 1, 0, 0)"><g transform="matrix(1, 0, 0, 1, 0, 0)"><text x="0" y="26.0079345703125" style="font:  Normal 30px microsoft" text-anchor="start" fill="black" stroke="none" transform="matrix(1, 0, 0, 1, 5, 5)">其他</text></g></g></g><g transform="matrix(1, 0, 0, 1, 99, -201.41162109375)"><g transform="matrix(1, 0, 0, 1, 0, 0)"><g transform="matrix(1, 0, 0, 1, 0, 0)"><g transform="matrix(1, 0, 0, 1, 0, 0)"><text x="0" y="13.3367431640625" style="font:  Normal 14px microsoft yahei" text-anchor="start" fill="rgba(44, 169, 224, 1)" fill-opacity="1" stroke="none" transform="matrix(1, 0, 0, 1, 5, 5)">預處理系統</text><text x="0" y="31.119067382812503" style="font:  Normal 14px microsoft yahei" text-anchor="start" fill="rgba(44, 169, 224, 1)" fill-opacity="1" stroke="none" transform="matrix(1, 0, 0, 1, 5, 5)">1. go_other_update.py</text><text x="0" y="48.9013916015625" style="font:  Normal 14px microsoft yahei" text-anchor="start" fill="rgba(44, 169, 224, 1)" fill-opacity="1" stroke="none" transform="matrix(1, 0, 0, 1, 5, 5)">2. data_error_class.py</text><text x="0" y="66.68371582031251" style="font:  Normal 14px microsoft yahei" text-anchor="start" fill="rgba(44, 169, 224, 1)" fill-opacity="1" stroke="none" transform="matrix(1, 0, 0, 1, 5, 5)">3. cc.py</text></g></g></g></g><g transform="matrix(1, 0, 0, 1, -238.83173624915398, -103.25)"><path d="M 130,0 L 130,58.916666666666686 L 0,58.916666666666686 L 0,271.25" fill="none" stroke="#464646" stroke-width="2" stroke-linecap="butt" stroke-linejoin="miter" stroke-miterlimit="10" transform="matrix(1, 0, 0, 1, 47.08173624915397, 1)"/><path d="M 0,0 L 8,4 L 0,8 L 2,4 z" fill="#464646" stroke="none" transform="matrix(0, 1, -1, 0, 51.08173624915397, 263.75)"/><path d="M 0,0 L 8,4 L 0,8 L 2,4 z" fill="none" stroke="#464646" stroke-width="1" stroke-linecap="butt" stroke-linejoin="miter" stroke-miterlimit="10" transform="matrix(0, 1, -1, 0, 51.08173624915397, 263.75)"/><g transform="matrix(1, 0, 0, 1, 0, 136.319377542717)"><path d="M 5,0 L 89.16347249830794,0 C 91.40204874915398,0 94.16347249830794,2.761423749153968 94.16347249830794,5 L 94.16347249830794,15.764839685807935 C 94.16347249830794,18.003415936653965 91.40204874915398,20.764839685807935 89.16347249830794,20.764839685807935 L 5,20.764839685807935 C 2.761423749153968,20.764839685807935 0,18.003415936653965 0,15.764839685807935 L 0,5 C 0,2.761423749153968 2.761423749153968,0 5,0 z" fill="#fff" stroke="none" transform="matrix(1, 0, 0, 1, 0, 0)"/><g transform="matrix(1, 0, 0, 1, 0, 0)" clip-path="url(#CLIP7186)"><text x="44.3203125" y="11.431494140625" style="font:  Normal 12px microsoft yahei" text-anchor="middle" fill="black" stroke="none" transform="matrix(1, 0, 0, 1, 2.761423749153975, 2.761423749153966)">更新GenSMS=1</text></g></g><g transform="matrix(1, 0, 0, 1, 40.3203125, 61.24258015709603)"><g transform="matrix(1, 0, 0, 1, 0, 0)"/><g transform="matrix(1, 0, 0, 1, 0, 0)"/></g></g><g transform="matrix(1, 0, 0, 1, -65.47626749915396, 53.166666666666686)"><path d="M 93,0.08333333333331439 L 83,0.08333333333331439 L 83,0 L 0,0 L 0,114.83333333333331" fill="none" stroke="#e19a00" stroke-width="2" stroke-linecap="butt" stroke-linejoin="miter" stroke-miterlimit="10" transform="matrix(1, 0, 0, 1, 64.22626749915396, 1)"/><path d="M 0,0 L 8,4 L 0,8 L 2,4 z" fill="#e19a00" stroke="none" transform="matrix(0, 1, -1, 0, 68.22626749915396, 107.33333333333331)"/><path d="M 0,0 L 8,4 L 0,8 L 2,4 z" fill="none" stroke="#e19a00" stroke-width="1" stroke-linecap="butt" stroke-linejoin="miter" stroke-miterlimit="10" transform="matrix(0, 1, -1, 0, 68.22626749915396, 107.33333333333331)"/><g transform="matrix(1, 0, 0, 1, 57.46484374999999, 1.4925801570960324)"><g transform="matrix(1, 0, 0, 1, 0, 0)"/><g transform="matrix(1, 0, 0, 1, 0, 0)"/></g><g transform="matrix(1, 0, 0, 1, 0, 47.661721409102455)"><path d="M 5,0 L 123.45253499830793,0 C 125.69111124915396,0 128.45253499830793,2.761423749153968 128.45253499830793,5 L 128.45253499830793,15.764839685807935 C 128.45253499830793,18.003415936653965 125.69111124915396,20.764839685807935 123.45253499830793,20.764839685807935 L 5,20.764839685807935 C 2.761423749153968,20.764839685807935 0,18.003415936653965 0,15.764839685807935 L 0,5 C 0,2.761423749153968 2.761423749153968,0 5,0 z" fill="#fff" stroke="none" transform="matrix(1, 0, 0, 1, 0, 0)"/><g transform="matrix(1, 0, 0, 1, 0, 0)" clip-path="url(#CLIP7187)"><text x="61.46484375" y="11.431494140625" style="font:  Normal 12px microsoft yahei" text-anchor="middle" fill="black" stroke="none" transform="matrix(1, 0, 0, 1, 2.761423749153968, 2.761423749153966)">插入新的sms,alert紀錄</text></g></g></g><g transform="matrix(1, 0, 0, 1, 169.75, 53.25)"><path d="M 0,0 L 75.91666666666663,0 L 75.91666666666663,94.5 L 76,94.5 L 76,104.5" fill="none" stroke="#464646" stroke-width="2" stroke-linecap="butt" stroke-linejoin="miter" stroke-miterlimit="10" transform="matrix(1, 0, 0, 1, 1, 1)"/><path d="M 0,0 L 8,4 L 0,8 L 2,4 z" fill="#464646" stroke="none" transform="matrix(0, 1, -1, 0, 81, 97)"/><path d="M 0,0 L 8,4 L 0,8 L 2,4 z" fill="none" stroke="#464646" stroke-width="1" stroke-linecap="butt" stroke-linejoin="miter" stroke-miterlimit="10" transform="matrix(0, 1, -1, 0, 81, 97)"/><g transform="matrix(1, 0, 0, 1, 26.80270385501266, 49.867580157095915)"><path d="M 5,0 L 95.22792562330794,0 C 97.46650187415398,0 100.22792562330794,2.761423749153968 100.22792562330794,5 L 100.22792562330794,15.764839685807935 C 100.22792562330794,18.003415936653965 97.46650187415398,20.764839685807935 95.22792562330794,20.764839685807935 L 5,20.764839685807935 C 2.761423749153968,20.764839685807935 0,18.003415936653965 0,15.764839685807935 L 0,5 C 0,2.761423749153968 2.761423749153968,0 5,0 z" fill="#fff" stroke="none" transform="matrix(1, 0, 0, 1, 0, 0)"/><g transform="matrix(1, 0, 0, 1, 0, 0)" clip-path="url(#CLIP7188)"><text x="47.3525390625" y="11.431494140625" style="font:  Normal 12px microsoft yahei" text-anchor="middle" fill="black" stroke="none" transform="matrix(1, 0, 0, 1, 2.761423749153975, 2.761423749153966)">將xml傳給 server</text></g></g><g transform="matrix(1, 0, 0, 1, 70.15524291751267, 4.950913490429404)"><g transform="matrix(1, 0, 0, 1, 0, 0)"/><g transform="matrix(1, 0, 0, 1, 0, 0)"/></g></g><g transform="matrix(1, 0, 0, 1, 81.10504545280878, 92.75)"><path d="M 0,0 L 0,24.749999999999886 L 0.030991735537241993,24.749999999999886 L 0.030991735537241993,64.25" fill="none" stroke="#464646" stroke-width="2" stroke-linecap="butt" stroke-linejoin="miter" stroke-miterlimit="10" transform="matrix(1, 0, 0, 1, 50.11396281165397, 1)"/><path d="M 0,0 L 8,4 L 0,8 L 2,4 z" fill="#464646" stroke="none" transform="matrix(0, 1, -1, 0, 54.14495454719121, 56.75)"/><path d="M 0,0 L 8,4 L 0,8 L 2,4 z" fill="none" stroke="#464646" stroke-width="1" stroke-linecap="butt" stroke-linejoin="miter" stroke-miterlimit="10" transform="matrix(0, 1, -1, 0, 54.14495454719121, 56.75)"/><g transform="matrix(1, 0, 0, 1, 43.38353079803724, 22.72708428932741)"><g transform="matrix(1, 0, 0, 1, 0, 0)"/><g transform="matrix(1, 0, 0, 1, 0, 0)"/></g><g transform="matrix(1, 0, 0, 1, 0, 8.700913490429233)"><path d="M 5,0 L 95.22792562330794,0 C 97.46650187415398,0 100.22792562330794,2.761423749153968 100.22792562330794,5 L 100.22792562330794,15.764839685807935 C 100.22792562330794,18.003415936653965 97.46650187415398,20.764839685807935 95.22792562330794,20.764839685807935 L 5,20.764839685807935 C 2.761423749153968,20.764839685807935 0,18.003415936653965 0,15.764839685807935 L 0,5 C 0,2.761423749153968 2.761423749153968,0 5,0 z" fill="#fff" stroke="none" transform="matrix(1, 0, 0, 1, 0, 0)"/><g transform="matrix(1, 0, 0, 1, 0, 0)" clip-path="url(#CLIP7189)"><text x="47.3525390625" y="11.431494140625" style="font:  Normal 12px microsoft yahei" text-anchor="middle" fill="black" stroke="none" transform="matrix(1, 0, 0, 1, 2.761423749153975, 2.761423749153966)">將xml傳給 server</text></g></g></g><g transform="matrix(1, 0, 0, 1, -23.25, -234.5)"><path d="M 58.5,0 L 58.5,91.75 L 0,91.75" fill="none" stroke="rgba(44, 169, 224, 1)" stroke-opacity="1" stroke-width="2" stroke-linecap="butt" stroke-linejoin="miter" stroke-miterlimit="10" transform="matrix(1, 0, 0, 1, 1, 1)"/><path d="M 0,0 L 8,4 L 0,8 L 2,4 z" fill="rgba(44, 169, 224, 1)" fill-opacity="1" stroke="none" transform="matrix(-1, 0, 0, -1, 9.5, 96.75)"/><path d="M 0,0 L 8,4 L 0,8 L 2,4 z" fill="none" stroke="rgba(44, 169, 224, 1)" stroke-opacity="1" stroke-width="1" stroke-linecap="butt" stroke-linejoin="miter" stroke-miterlimit="10" transform="matrix(-1, 0, 0, -1, 9.5, 96.75)"/><g transform="matrix(1, 0, 0, 1, 52.73857625084603, 65.74258015709603)"><g transform="matrix(1, 0, 0, 1, 0, 0)"/><g transform="matrix(1, 0, 0, 1, 0, 0)"/></g><g transform="matrix(1, 0, 0, 1, 52.73857625084603, 65.74258015709603)"><g transform="matrix(1, 0, 0, 1, 0, 0)"/><g transform="matrix(1, 0, 0, 1, 0, 0)"/></g></g><g transform="matrix(1, 0, 0, 1, -161.01142374915398, -232.25)"><path d="M 0,0 L 0,89.5 L 53,89.5" fill="none" stroke="rgba(44, 169, 224, 1)" stroke-opacity="1" stroke-width="2" stroke-linecap="butt" stroke-linejoin="miter" stroke-miterlimit="10" transform="matrix(1, 0, 0, 1, 6.761423749153968, 1)"/><path d="M 0,0 L 8,4 L 0,8 L 2,4 z" fill="rgba(44, 169, 224, 1)" fill-opacity="1" stroke="none" transform="matrix(1, 0, 0, 1, 51.26142374915397, 86.5)"/><path d="M 0,0 L 8,4 L 0,8 L 2,4 z" fill="none" stroke="rgba(44, 169, 224, 1)" stroke-opacity="1" stroke-width="1" stroke-linecap="butt" stroke-linejoin="miter" stroke-miterlimit="10" transform="matrix(1, 0, 0, 1, 51.26142374915397, 86.5)"/><g transform="matrix(1, 0, 0, 1, 0, 61.86758015709603)"><g transform="matrix(1, 0, 0, 1, 0, 0)"/><g transform="matrix(1, 0, 0, 1, 0, 0)"/></g><g transform="matrix(1, 0, 0, 1, 0, 61.86758015709603)"><g transform="matrix(1, 0, 0, 1, 0, 0)"/><g transform="matrix(1, 0, 0, 1, 0, 0)"/></g></g><g transform="matrix(1, 0, 0, 1, -62.75, -103.25)"><path d="M 0,0 L 0,58.5 L 193,58.5 L 193,117" fill="none" stroke="rgba(200, 81, 121, 1)" stroke-opacity="1" stroke-width="2" stroke-linecap="butt" stroke-linejoin="miter" stroke-miterlimit="10" transform="matrix(1, 0, 0, 1, 1, 1)"/><path d="M 0,0 L 8,4 L 0,8 L 2,4 z" fill="rgba(200, 81, 121, 1)" fill-opacity="1" stroke="none" transform="matrix(0, 1, -1, 0, 198, 109.5)"/><path d="M 0,0 L 8,4 L 0,8 L 2,4 z" fill="none" stroke="rgba(200, 81, 121, 1)" stroke-opacity="1" stroke-width="1" stroke-linecap="butt" stroke-linejoin="miter" stroke-miterlimit="10" transform="matrix(0, 1, -1, 0, 198, 109.5)"/><g transform="matrix(1, 0, 0, 1, 90.73857625084604, 49.11758015709603)"><g transform="matrix(1, 0, 0, 1, 0, 0)"/><g transform="matrix(1, 0, 0, 1, 0, 0)"/></g><g transform="matrix(1, 0, 0, 1, 90.73857625084604, 49.11758015709603)"><g transform="matrix(1, 0, 0, 1, 0, 0)"/><g transform="matrix(1, 0, 0, 1, 0, 0)"/></g></g></g></g><clipPath id="mainClip7167"><rect x="0" y="0" width="1125" height="796"/></clipPath><clipPath id="CLIP7168"><path d="M 0,0 L 197,0 L 197,60 L 0,60 z" transform="matrix(1, 0, 0, 1, 0, 0)"/></clipPath><clipPath id="CLIP7169"><path d="M 0,0 L 120,0 L 120,60 L 0,60 z" transform="matrix(1, 0, 0, 1, 0, 0)"/></clipPath><clipPath id="CLIP7170"><path d="M 0,0 L 78,0 L 78,78 L 0,78 z" transform="matrix(1, 0, 0, 1, 0, 0)"/></clipPath><clipPath id="CLIP7171"><path d="M 73,36.5 L 78,36.5 L 78,42.5 L 73,42.5 z" transform="matrix(1, 0, 0, 1, 0, 0)"/></clipPath><clipPath id="CLIP7172"><path d="M 36.5,73 L 42.5,73 L 42.5,78 L 36.5,78 z" transform="matrix(1, 0, 0, 1, 0, 0)"/></clipPath><clipPath id="CLIP7173"><path d="M 0,0 L 83,0 L 83,83 L 0,83 z" transform="matrix(1, 0, 0, 1, 0, 0)"/></clipPath><clipPath id="CLIP7174"><path d="M 78,39 L 83,39 L 83,45 L 78,45 z" transform="matrix(1, 0, 0, 1, 0, 0)"/></clipPath><clipPath id="CLIP7175"><path d="M 39,78 L 45,78 L 45,83 L 39,83 z" transform="matrix(1, 0, 0, 1, 0, 0)"/></clipPath><clipPath id="CLIP7176"><path d="M 0,0 L 83,0 L 83,83 L 0,83 z" transform="matrix(1, 0, 0, 1, 0, 0)"/></clipPath><clipPath id="CLIP7177"><path d="M 78,39 L 83,39 L 83,45 L 78,45 z" transform="matrix(1, 0, 0, 1, 0, 0)"/></clipPath><clipPath id="CLIP7178"><path d="M 39,78 L 45,78 L 45,83 L 39,83 z" transform="matrix(1, 0, 0, 1, 0, 0)"/></clipPath><clipPath id="CLIP7179"><path d="M 0,0 L 78,0 L 78,78 L 0,78 z" transform="matrix(1, 0, 0, 1, 0, 0)"/></clipPath><clipPath id="CLIP7180"><path d="M 73,36.5 L 78,36.5 L 78,42.5 L 73,42.5 z" transform="matrix(1, 0, 0, 1, 0, 0)"/></clipPath><clipPath id="CLIP7181"><path d="M 36.5,73 L 42.5,73 L 42.5,78 L 36.5,78 z" transform="matrix(1, 0, 0, 1, 0, 0)"/></clipPath><clipPath id="CLIP7182"><path d="M 0,0 L 197,0 L 197,60 L 0,60 z" transform="matrix(1, 0, 0, 1, 0, 0)"/></clipPath><clipPath id="CLIP7183"><path d="M 0,0 L 145,0 L 145,62 L 0,62 z" transform="matrix(1, 0, 0, 1, 0, 0)"/></clipPath><clipPath id="CLIP7184"><path d="M 140,28.5 L 145,28.5 L 145,34.5 L 140,34.5 z" transform="matrix(1, 0, 0, 1, 0, 0)"/></clipPath><clipPath id="CLIP7185"><path d="M 70,57 L 76,57 L 76,62 L 70,62 z" transform="matrix(1, 0, 0, 1, 0, 0)"/></clipPath><clipPath id="CLIP7186"><path d="M 2.761423749153968,2.761423749153968 L 91.40204874915398,2.761423749153968 L 91.40204874915398,18.003415936653965 L 2.761423749153968,18.003415936653965 z" transform="matrix(1, 0, 0, 1, 0, 0)"/></clipPath><clipPath id="CLIP7187"><path d="M 2.761423749153968,2.761423749153968 L 125.69111124915396,2.761423749153968 L 125.69111124915396,18.003415936653965 L 2.761423749153968,18.003415936653965 z" transform="matrix(1, 0, 0, 1, 0, 0)"/></clipPath><clipPath id="CLIP7188"><path d="M 2.761423749153968,2.761423749153968 L 97.46650187415398,2.761423749153968 L 97.46650187415398,18.003415936653965 L 2.761423749153968,18.003415936653965 z" transform="matrix(1, 0, 0, 1, 0, 0)"/></clipPath><clipPath id="CLIP7189"><path d="M 2.761423749153968,2.761423749153968 L 97.46650187415398,2.761423749153968 L 97.46650187415398,18.003415936653965 L 2.761423749153968,18.003415936653965 z" transform="matrix(1, 0, 0, 1, 0, 0)"/></clipPath></svg>