<?xml version="1.0" encoding="iso-8859-1"?>
<!-- Uploaded to: SVG Repo, www.svgrepo.com, Generator: SVG Repo Mixer Tools -->
<svg version="1.1" id="Layer_1" xmlns="http://www.w3.org/2000/svg" xmlns:xlink="http://www.w3.org/1999/xlink" 
	 viewBox="0 0 512 512" xml:space="preserve">
<path style="fill:#0F7BE4;" d="M102.409,409.6c0,4.693,3.84,8.533,8.533,8.533h136.533v59.733h-230.4V34.133h230.4v366.933H110.942
	C106.249,401.067,102.409,404.907,102.409,409.6z"/>
<rect x="213.342" y="34.133" style="fill:#215EFF;" width="34.133" height="443.733"/>
<path d="M511.497,483.584l-162.133-460.8c-1.195-3.413-4.437-5.717-8.021-5.717h-76.8V8.533c0-4.693-3.84-8.533-8.533-8.533
	s-8.533,3.84-8.533,8.533v8.533H8.542c-4.693,0-8.533,3.84-8.533,8.533v460.8c0,4.693,3.84,8.533,8.533,8.533h238.933v8.533
	c0,4.693,3.84,8.533,8.533,8.533s8.533-3.84,8.533-8.533v-8.533h238.933c2.731,0,5.376-1.365,6.997-3.584
	C512.009,489.045,512.435,486.144,511.497,483.584z M247.475,401.067H110.942c-4.693,0-8.533,3.84-8.533,8.533
	c0,4.693,3.84,8.533,8.533,8.533h136.533v59.733h-230.4V34.133h230.4V401.067z M264.542,477.867v-59.733h25.6v25.6
	c0,3.157,1.707,6.059,4.523,7.509c1.28,0.683,2.645,1.024,4.011,1.024c1.621,0,3.328-0.512,4.693-1.451l51.2-34.133
	c2.389-1.536,3.84-4.267,3.84-7.083c0-2.816-1.451-5.547-3.84-7.083l-51.2-34.133c-2.56-1.792-5.973-1.963-8.704-0.427
	c-2.816,1.451-4.523,4.352-4.523,7.509v25.6h-25.6V34.133h70.741l156.16,443.733H264.542z M307.209,427.776v-36.352l27.307,18.176
	L307.209,427.776z"/>
<polygon style="fill:#F9F9F9;" points="334.515,409.6 307.209,427.776 307.209,391.424 "/>
<path style="fill:#FDB50D;" d="M491.443,477.867H264.542v-59.733h25.6v25.6c0,3.157,1.707,6.059,4.523,7.509
	c1.28,0.683,2.645,1.024,4.011,1.024c1.621,0,3.328-0.512,4.693-1.451l51.2-34.133c2.389-1.536,3.84-4.267,3.84-7.083
	c0-2.816-1.451-5.547-3.84-7.083l-51.2-34.133c-2.56-1.792-5.973-1.963-8.704-0.427c-2.816,1.451-4.523,4.352-4.523,7.509v25.6
	h-25.6V34.133h70.741L491.443,477.867z"/>
<polygon style="fill:#F6981E;" points="491.187,477.867 451.251,477.867 298.675,34.133 335.027,34.133 "/>
</svg>